<svg xmlns="http://www.w3.org/2000/svg" width="34.437" height="39.529" viewBox="0 0 34.437 39.529">
  <path id="leg" d="M65.244,38.4a3.85,3.85,0,0,1-2.754,1.128l-17.727-.1a1.275,1.275,0,0,1-.9-.376c-3.241-3.261-.843-7.1-.251-8.365.833-1.787.2-2.936-1.2-10.216C40.378,9.842,39.666,5.977,42.036.749A1.275,1.275,0,1,1,44.359,1.8c-1.915,4.225-1.78,7.158,1.4,22.309.962,4.59,1.159,5.7-.074,8.154-.786,1.568-1.452,3.147-.334,4.62l17.163.093a1.325,1.325,0,0,0,.206-2.635l-4.45-.7a8.474,8.474,0,0,1-7.1-9.336L53.711,2.925a1.275,1.275,0,0,1,2.532.3L53.7,24.6a5.922,5.922,0,0,0,4.96,6.521l4.45.7A3.876,3.876,0,0,1,65.244,38.4ZM37.279,1.569,36.322.931a1.275,1.275,0,1,0-1.415,2.122c1.011.674,1.181.852,1.662.852A1.276,1.276,0,0,0,37.279,1.569Zm-2.7,8.712H33.224a1.275,1.275,0,0,0,0,2.55h1.355a1.275,1.275,0,1,0,0-2.55Zm2.63,8.249-.8.638a1.275,1.275,0,0,0,1.593,1.991l.8-.638a1.275,1.275,0,1,0-1.593-1.991Z" transform="translate(-31.949 0)" fill="#6d2175"/>
</svg>
