<svg xmlns="http://www.w3.org/2000/svg" width="36.807" height="41.744" viewBox="0 0 36.807 41.744">
  <g id="fatigue" transform="translate(-30.25)">
    <path id="Path_51" data-name="Path 51" d="M51.877,22.884a7.128,7.128,0,0,0,2.441-5.067,9.912,9.912,0,0,0,2.864-7V9.747a9.561,9.561,0,0,0-2.934-6.9A10.078,10.078,0,0,0,50.016.4L49.857.351l-.885.225-.514-.5L48.248.055A10.322,10.322,0,0,0,47.184,0,10.13,10.13,0,0,0,40.53,2.472l.8.924a8.906,8.906,0,0,1,5.851-2.172c.243,0,.487.01.729.029l.7.677,1.224-.311a8.85,8.85,0,0,1,3.56,2.107,8.347,8.347,0,0,1,2.564,6.021v1.067a8.693,8.693,0,0,1-1.632,5.1v-5.43l-.465-.115a6.593,6.593,0,0,1-3.511-2.256l-.632-.767-.4.909a6.255,6.255,0,0,1-6.059,3.651,9.745,9.745,0,0,1-2.449-.254l-.765-.2v4.459a8.693,8.693,0,0,1-1.632-5.1V9.747A8.379,8.379,0,0,1,40.522,4.2l-.918-.81a9.6,9.6,0,0,0-2.418,6.356v1.067a9.912,9.912,0,0,0,2.864,7,7.128,7.128,0,0,0,2.441,5.067v2.824h-5.1a7.149,7.149,0,0,0-7.141,7.141v2.311h1.224V32.848a5.923,5.923,0,0,1,5.917-5.916h5.142a4.691,4.691,0,0,0,9.3,0h3.476V25.708H51.877V22.884ZM50.653,26.32a3.468,3.468,0,0,1-6.937,0V23.746a7.127,7.127,0,0,0,6.937,0Zm-3.468-2.9a5.923,5.923,0,0,1-5.917-5.917V13a12.789,12.789,0,0,0,1.99.135A7.512,7.512,0,0,0,50.02,9.562,7.739,7.739,0,0,0,53.1,11.426v6.079A5.923,5.923,0,0,1,47.184,23.422Z" fill="#03a8f9"/>
    <path id="Path_52" data-name="Path 52" d="M352.781,315h-.441v1.224h.441a5.919,5.919,0,0,1,5.062,2.856h-1.8V320.3h2.359a5.871,5.871,0,0,1,.262,1.224h-1.478v1.224h1.51v8.284h1.224v-8.9A7.149,7.149,0,0,0,352.781,315Z" transform="translate(-295.804 -289.292)" fill="#03a8f9"/>
    <path id="Path_53" data-name="Path 53" d="M30.25,451.185h1.224v-5.359H30.25Z" transform="translate(0 -409.441)" fill="#03a8f9"/>
    <path id="Path_54" data-name="Path 54" d="M355.25,427.5h1.224v6.855H355.25Z" transform="translate(-298.476 -392.611)" fill="#03a8f9"/>
    <path id="Path_55" data-name="Path 55" d="M106.474,430.071h1.347v-1.224h-1.347V427.5H105.25v6.855h1.224v-1.836H108.8v-1.224h-2.326Z" transform="translate(-68.879 -392.611)" fill="#03a8f9"/>
    <path id="Path_56" data-name="Path 56" d="M382.779,63.448V61H378.29v2.448h-2.04V71h1.224V64.673h6.121v2.244h1.224V63.448Zm-1.224,0h-2.04V62.224h2.04Z" transform="translate(-317.763 -56.022)" fill="#03a8f9"/>
    <path id="Path_57" data-name="Path 57" d="M383.595,157.681h-6.121v-5.1H376.25v6.325h8.569V148.5h-1.224Z" transform="translate(-317.763 -136.381)" fill="#03a8f9"/>
    <path id="Path_58" data-name="Path 58" d="M408.75,231h3.264v1.224H408.75Z" transform="translate(-347.61 -212.148)" fill="#03a8f9"/>
    <path id="Path_59" data-name="Path 59" d="M81.739,234H77.291v1.224h2.485l-2.526,2.652v.939H81.7v-1.224H79.213l2.526-2.652Z" transform="translate(-43.164 -214.903)" fill="#03a8f9"/>
    <path id="Path_60" data-name="Path 60" d="M40.882,171.775H39.2l1.724-1.839V169H37.291v1.224h1.683l-1.724,1.839V173h3.632Z" transform="translate(-6.429 -155.208)" fill="#03a8f9"/>
    <path id="Path_61" data-name="Path 61" d="M215.377,246.523l.714.995a2.255,2.255,0,0,1,2.224,0l.714-.995a3.449,3.449,0,0,0-3.652,0Z" transform="translate(-170.019 -225.924)" fill="#03a8f9"/>
    <path id="Path_62" data-name="Path 62" d="M184.97,178.854l.791-.791-.866-.866-.791.791-.791-.791-.866.866.791.791-.791.791.866.866.791-.791.791.791.866-.866Z" transform="translate(-139.776 -162.736)" fill="#03a8f9"/>
    <path id="Path_63" data-name="Path 63" d="M254.9,177.2l-.791.791-.791-.791-.866.866.791.791-.791.791.866.866.791-.791.791.791.866-.866-.791-.791.791-.791Z" transform="translate(-204.063 -162.736)" fill="#03a8f9"/>
    <path id="Path_64" data-name="Path 64" d="M408.331,121.889l-1.367,3.682h1.747l-.859,2,1.125.482,1.59-3.71h-1.843l.755-2.031Z" transform="translate(-345.97 -111.941)" fill="#03a8f9"/>
    <path id="Path_65" data-name="Path 65" d="M367.75,365h1.224v1.224H367.75Z" transform="translate(-309.956 -335.212)" fill="#03a8f9"/>
    <path id="Path_66" data-name="Path 66" d="M163.75,474h1.224v1.224H163.75Z" transform="translate(-122.605 -435.316)" fill="#03a8f9"/>
    <path id="Path_67" data-name="Path 67" d="M230.25,482.5h1.224v1.224H230.25Z" transform="translate(-183.678 -443.123)" fill="#03a8f9"/>
    <path id="Path_68" data-name="Path 68" d="M230.25,396.5h1.224v1.224H230.25Z" transform="translate(-183.678 -364.141)" fill="#03a8f9"/>
    <path id="Path_69" data-name="Path 69" d="M230.25,439.5h1.224v1.224H230.25Z" transform="translate(-183.678 -403.632)" fill="#03a8f9"/>
  </g>
</svg>
