<svg xmlns="http://www.w3.org/2000/svg" width="39.526" height="42.195" viewBox="0 0 39.526 42.195">
  <path id="headache" d="M42.49,19.918l-2.061,1.546L42.49,23.01a.7.7,0,1,1-.843,1.124l-2.811-2.108a.7.7,0,0,1,0-1.124l2.811-2.108a.7.7,0,0,1,.843,1.124Zm8.143-7.531a.7.7,0,0,0-.7.7v28.4a.7.7,0,1,0,1.405,0v-28.4A.7.7,0,0,0,50.633,12.388ZM33.387,1.437h5.768a10.655,10.655,0,0,1,4.941,1.2.7.7,0,1,0,.645-1.248A12.213,12.213,0,0,0,39.155.031H33.387A12.194,12.194,0,0,0,21.207,12.212v29.28a.7.7,0,1,0,1.405,0V12.212A10.787,10.787,0,0,1,33.387,1.437ZM54.512,7.812A.7.7,0,0,1,54.3,8.95l-7.554,3.4a.7.7,0,0,1-.862-1.047l2.4-3.38L45.964,5.6a.7.7,0,0,1,.209-1.138l7.554-3.4a.7.7,0,0,1,.862,1.047l-2.4,3.38ZM52.8,8.086,50.78,6.068a.7.7,0,0,1-.076-.9l1.245-1.757L47.678,5.329,49.7,7.347a.7.7,0,0,1,.076.9l-1.245,1.757Zm-4.9,8.955a8.611,8.611,0,0,1-3.374-1.836,8.489,8.489,0,0,1-2.236-3.195.7.7,0,0,0-1.276-.065,11.919,11.919,0,0,1-4.977,5.025,5.511,5.511,0,0,0-.709-2.738.7.7,0,0,0-1.192-.052,8.222,8.222,0,0,1-6.617,3.874.7.7,0,0,0,.016,1.405,8.805,8.805,0,0,0,2.7-.478.7.7,0,0,0,.172.936l2.061,1.546L30.4,23.01a.7.7,0,1,0,.843,1.124l2.811-2.108a.7.7,0,0,0,0-1.124c-3.052-2.289-2.869-2.178-3.056-2.226a10.3,10.3,0,0,0,3.516-2.692,4.1,4.1,0,0,1-.022,1.991.7.7,0,0,0,.949.827,13.391,13.391,0,0,0,6.13-5.041,9.832,9.832,0,0,0,5.357,4.446V24.05a10.718,10.718,0,1,1-21.435,0V21.383a.7.7,0,1,0-1.405,0V24.05a12.139,12.139,0,0,0,7.02,10.995v1.638a4.087,4.087,0,0,1-1.2,2.905,4,4,0,0,1-2.89,1.2.7.7,0,1,0,0,1.405,5.5,5.5,0,0,0,5.494-5.511V35.6a12.138,12.138,0,0,0,15.82-11.476c0-.05,0-6.386,0-6.436a.7.7,0,0,0-.437-.644ZM45.4,40.789a4.06,4.06,0,0,1-3.5-1.975.7.7,0,0,0-1.2.728,5.455,5.455,0,0,0,4.7,2.652.7.7,0,1,0,0-1.405ZM21.422,4.031,19.932,1.3a.7.7,0,0,0-1.114-.16l-1.2,1.2L16.513.361a.7.7,0,0,0-1.229.683l1.553,2.795a.7.7,0,0,0,1.111.156l1.2-1.2L20.189,4.7a.7.7,0,1,0,1.234-.673Zm-3.053,9.24-1.829,1a.7.7,0,0,0-.16,1.114l.588.588-1.056.587a.7.7,0,0,0,.683,1.229l1.87-1.039a.7.7,0,0,0,.156-1.111l-.583-.583,1-.548a.7.7,0,0,0-.673-1.234ZM36.921,27.233a.7.7,0,0,0-.86,0l-.931.721-.931-.721a.7.7,0,0,0-.86,0l-1.362,1.054a.7.7,0,0,0,.86,1.111l.931-.721.931.721a.7.7,0,0,0,.86,0l.931-.721.931.721a.7.7,0,0,0,.86,0l.931-.721.931.721a.7.7,0,0,0,.86-1.111l-1.362-1.054a.7.7,0,0,0-.86,0l-.931.721Z" transform="translate(-15.196 0)" fill="#212b75"/>
</svg>
