<svg xmlns="http://www.w3.org/2000/svg" width="43.531" height="38.411" viewBox="0 0 43.531 38.411">
  <g id="message" transform="translate(0 -30.11)">
    <g id="Group_5" data-name="Group 5" transform="translate(0 30.11)">
      <g id="Group_4" data-name="Group 4">
        <path id="Path_5" data-name="Path 5" d="M219.928,191.141H199.693a.638.638,0,1,0,0,1.275h20.235a.638.638,0,1,0,0-1.275Z" transform="translate(-182.131 -177.45)" fill="#03a8f9"/>
        <path id="Path_6" data-name="Path 6" d="M219.928,248.474H199.693a.638.638,0,1,0,0,1.275h20.235a.638.638,0,1,0,0-1.275Z" transform="translate(-182.131 -229.908)" fill="#03a8f9"/>
        <path id="Path_7" data-name="Path 7" d="M219.928,305.807H199.693a.638.638,0,1,0,0,1.275h20.235a.638.638,0,1,0,0-1.275Z" transform="translate(-182.131 -282.367)" fill="#03a8f9"/>
        <path id="Path_8" data-name="Path 8" d="M167.1,125.549H142.819a3.713,3.713,0,0,0-3.709,3.709v15.271a3.713,3.713,0,0,0,3.709,3.709h17.022a.588.588,0,0,1,.464.225l5.5,6.959a1.1,1.1,0,0,0,.864.424,1.129,1.129,0,0,0,.371-.063,1.1,1.1,0,0,0,.746-1.048v-6.56a3.726,3.726,0,0,0,3.031-3.646V129.258A3.713,3.713,0,0,0,167.1,125.549Zm2.433,18.98a2.442,2.442,0,0,1-2.4,2.432.638.638,0,0,0-.63.638v6.658l-5.2-6.585a1.856,1.856,0,0,0-1.465-.71H142.819a2.436,2.436,0,0,1-2.433-2.433V129.258a2.436,2.436,0,0,1,2.433-2.434H167.1a2.436,2.436,0,0,1,2.433,2.434Z" transform="translate(-127.283 -117.435)" fill="#03a8f9"/>
        <path id="Path_9" data-name="Path 9" d="M9.394,48.768a1.7,1.7,0,0,0-1.1.632l-4.38,5.546V49.388a.638.638,0,0,0-.63-.638,2.043,2.043,0,0,1-2.009-2.035V33.421a2.038,2.038,0,0,1,2.036-2.036H24.453a2.038,2.038,0,0,1,2.036,2.036v2.46a.638.638,0,1,0,1.275,0v-2.46a3.315,3.315,0,0,0-3.311-3.311H3.311A3.315,3.315,0,0,0,0,33.421V46.715a3.327,3.327,0,0,0,2.639,3.241V55.6a1.036,1.036,0,0,0,.7.99,1.067,1.067,0,0,0,.351.06,1.036,1.036,0,0,0,.816-.4L9.3,50.191a.43.43,0,0,1,.278-.16.638.638,0,0,0-.179-1.263Z" transform="translate(0 -30.11)" fill="#03a8f9"/>
      </g>
    </g>
  </g>
</svg>
