<svg xmlns="http://www.w3.org/2000/svg" width="34.574" height="34.574" viewBox="0 0 34.574 34.574">
  <g id="pain" transform="translate(-1 -1)">
    <path id="Path_3" data-name="Path 3" d="M31.251,13.544l1.361-.68L31.445,11.7l3.867-2.416-.591-.946-5.056,3.16,1.064,1.064-.569.284a10.52,10.52,0,0,0-1.7-.772l-.879-.306,2.344-3.517H28.014L29.4,4.542,28.36,4.15,26.4,9.365H27.84l-1.347,2.021L24.246,10.6a2.234,2.234,0,0,1-1.5-2.107V7.983a14.759,14.759,0,0,0,5.333-6.193L28.446,1H8.128l.364.791a14.756,14.756,0,0,0,5.333,6.193V8.5a2.233,2.233,0,0,1-1.5,2.107L8.114,12.07A10.6,10.6,0,0,0,1,22.077V29.44a6.141,6.141,0,0,0,6.134,6.134h28.44v-13.5a10.6,10.6,0,0,0-4.323-8.534ZM9.9,2.115H26.673a13.6,13.6,0,0,1-8.386,6.672A13.6,13.6,0,0,1,9.9,2.115ZM34.459,34.459H28.882v-9.9a5.12,5.12,0,0,1,1.51-3.645l-.789-.789a6.228,6.228,0,0,0-1.836,4.433v9.9H10.785l6.644-6.169,2.124-.354a3.878,3.878,0,0,0,2.118-1.09l4.472-4.472a1.738,1.738,0,0,0-.53-2.821,1.733,1.733,0,0,0-.558-2.788,1.725,1.725,0,0,0,.482-1.2,1.741,1.741,0,0,0-2.971-1.231l-.526.526a1.738,1.738,0,0,0-2.819-.526l-2.133,2.133a3.807,3.807,0,0,0-1.61-2.4,1.419,1.419,0,0,0-2.208,1.179v.575a2.69,2.69,0,0,1-.792,1.914l-.852.852a3.878,3.878,0,0,0-1.143,2.76v1.729L8.808,24.748v-.191a6.228,6.228,0,0,0-1.836-4.433l-.789.789a5.122,5.122,0,0,1,1.509,3.645v1.307L3.952,29.6l.789.789L11.6,23.537V21.346a2.772,2.772,0,0,1,.816-1.972l.852-.852a3.8,3.8,0,0,0,1.12-2.7v-.575a.313.313,0,0,1,.473-.252,2.7,2.7,0,0,1,1.2,2.249V17.5l-2.067,2.067-.028.028.789.789.028-.028,2.394-2.394,2.836-2.836a.625.625,0,0,1,.884.884l-4.115,4.115.789.789L21.681,16.8l1.673-1.673a.625.625,0,0,1,.884.884l-1.115,1.115L18.451,21.8l.789.789,4.673-4.673a.625.625,0,0,1,.884.884l-1.115,1.115-3.557,3.557.789.789L24.469,20.7a.625.625,0,0,1,.884.884l-4.472,4.472a2.771,2.771,0,0,1-1.513.778l-2.453.409-7.77,7.214H7.134A5.025,5.025,0,0,1,2.115,29.44V22.077a9.488,9.488,0,0,1,6.366-8.954l4.214-1.465a3.344,3.344,0,0,0,2.236-3.02A14.782,14.782,0,0,0,18.145,9.9l.142.037.142-.037a14.771,14.771,0,0,0,3.215-1.266,3.344,3.344,0,0,0,2.236,3.02l1.974.686-.781,1.172.928.618.941-1.412,1.152.4c.284.1.559.214.829.338L25.844,15l.5,1,3.772-1.887a9.491,9.491,0,0,1,4.343,7.967Z" fill="#03a8f9"/>
    <path id="Path_4" data-name="Path 4" d="M31.346,9.673h1.115c0-.938-.98-1.673-2.231-1.673S28,8.735,28,9.673h1.115c0-.228.434-.558,1.115-.558S31.346,9.445,31.346,9.673Z" transform="translate(-11.943 -3.096)" fill="#03a8f9"/>
  </g>
</svg>
