<svg xmlns="http://www.w3.org/2000/svg" width="29.936" height="37.5" viewBox="0 0 29.936 37.5">
  <g id="question" transform="translate(0.5 0.5)">
    <path id="Path_19" data-name="Path 19" d="M22.894,8.208,21.621,9.481l1.273,1.273a1.426,1.426,0,1,1-2.016,2.016L19.6,11.5l-1.273,1.273a1.426,1.426,0,0,1-2.016-2.016l1.273-1.273L16.315,8.208a1.426,1.426,0,0,1,2.016-2.016L19.6,7.465l1.273-1.273a1.426,1.426,0,1,1,2.016,2.016ZM13.341,6.762a1.426,1.426,0,0,0-2.016,0L8.718,9.373l-1.064-1.1A1.426,1.426,0,1,0,5.606,10.26L7.679,12.4a1.425,1.425,0,0,0,1.013.434H8.7a1.425,1.425,0,0,0,1.009-.419l3.63-3.636A1.426,1.426,0,0,0,13.341,6.762ZM23.312,18.04a1.426,1.426,0,0,0-1.426-1.426H17.323a1.426,1.426,0,1,0,0,2.852h4.563A1.426,1.426,0,0,0,23.312,18.04Zm-11.62-1.43H7.129a1.426,1.426,0,1,0,0,2.852h4.563a1.426,1.426,0,1,0,0-2.852Zm5.632,5.275a1.426,1.426,0,0,0,0,2.852H20.46a1.426,1.426,0,1,0,0-2.852Zm-5.632,0H7.129a1.426,1.426,0,1,0,0,2.852h4.563a1.426,1.426,0,1,0,0-2.852Zm0,5.208H7.129a1.426,1.426,0,0,0,0,2.852h4.563a1.426,1.426,0,1,0,0-2.852Zm15.818-2a1.426,1.426,0,0,0,1.426-1.426V5.7a5.709,5.709,0,0,0-5.7-5.7H5.7A5.709,5.709,0,0,0,0,5.7V30.8a5.709,5.709,0,0,0,5.7,5.7H23.232a5.71,5.71,0,0,0,5.7-5.7,1.426,1.426,0,1,0-2.852,0,2.855,2.855,0,0,1-2.852,2.852H5.7A2.855,2.855,0,0,1,2.852,30.8V5.7A2.855,2.855,0,0,1,5.7,2.852H23.232A2.855,2.855,0,0,1,26.084,5.7V23.668A1.425,1.425,0,0,0,27.51,25.094Zm0,0" fill="none" stroke="#03a8f9" stroke-width="1"/>
  </g>
</svg>
