<svg id="Group_57" data-name="Group 57" xmlns="http://www.w3.org/2000/svg" xmlns:xlink="http://www.w3.org/1999/xlink" width="43.99" height="41.238" viewBox="0 0 43.99 41.238">
  <defs>
    <clipPath id="clip-path">
      <rect id="Rectangle_95" data-name="Rectangle 95" width="43.99" height="41.238" fill="#4a7723"/>
    </clipPath>
  </defs>
  <g id="Group_56" data-name="Group 56" clip-path="url(#clip-path)">
    <path id="Path_70" data-name="Path 70" d="M44.345,2.668A1.709,1.709,0,0,1,44.664,1.5a2.267,2.267,0,0,1,2.924.066,4.065,4.065,0,0,1,.405,1.867,3.387,3.387,0,0,0,2.065,2.591c1.275.5,2.721.178,4.072.4A4.762,4.762,0,0,1,57.494,8.78a4.237,4.237,0,0,1-.011,4.063c-1.084,1.88-3.5,2.536-5.667,2.541s-4.357-.462-6.494-.085c-.632.111-1.385.465-1.368,1.106.02.765,1.046.987,1.812.976l8.165-.116c2.013-.029,4.217.007,5.759,1.3a4.4,4.4,0,0,1,.647,5.822,5.713,5.713,0,0,1-3.36,1.962,16.988,16.988,0,0,1-3.955.24l-11.161-.195a2.927,2.927,0,0,0-1.443.22,1.007,1.007,0,0,0-.528,1.228c.237.5.908.561,1.46.554l10.135-.125c2.265-.028,4.769.031,6.437,1.562a4.5,4.5,0,0,1-2.352,7.76A28.75,28.75,0,0,1,52.2,37.56,3.019,3.019,0,0,0,49.4,39.1c-.271.669-.159,1.483-.579,2.071a1.706,1.706,0,0,1-2.49.038,2.932,2.932,0,0,1-.613-2.65A5.656,5.656,0,0,1,48.8,34.783,9.244,9.244,0,0,1,53.723,34c.772.068,1.8.038,2-.711a1.078,1.078,0,0,0-.647-1.16,3.147,3.147,0,0,0-1.413-.2l-10.174.1c-2.125.02-4.468-.039-6.046-1.462a4.29,4.29,0,0,1,.416-6.7c1.438-1,3.317-1.035,5.071-1.029l12.791.047c.739,0,1.682-.144,1.856-.862a1.142,1.142,0,0,0-.7-1.21,3.335,3.335,0,0,0-1.489-.2l-7.4.147c-2.289.045-4.867-.023-6.446-1.681a4.279,4.279,0,0,1-.295-5.365c1.281-1.681,3.623-2.134,5.736-2.085s4.254.467,6.32.02c.512-.111,1.115-.4,1.109-.928-.006-.547-.661-.817-1.2-.906a31.712,31.712,0,0,1-4.3-.614,6.643,6.643,0,0,1-4.285-4.644A8.045,8.045,0,0,1,44.345,2.668Z" transform="translate(-26.87 -0.746)" fill="#4a7723"/>
    <path id="Path_71" data-name="Path 71" d="M11.6,82.25l-.018.018a.433.433,0,0,1-.61,0L6.391,77.69a.433.433,0,0,1,0-.61l.018-.018a.433.433,0,0,1,.61,0L11.6,81.64a.433.433,0,0,1,0,.61" transform="translate(-4.673 -57.381)" fill="#4a7723"/>
    <path id="Path_72" data-name="Path 72" d="M7.336,103.2v.025a.433.433,0,0,1-.431.431H.431A.433.433,0,0,1,0,103.224V103.2a.433.433,0,0,1,.431-.431H6.9a.433.433,0,0,1,.431.431" transform="translate(0 -76.646)" fill="#4a7723"/>
    <path id="Path_73" data-name="Path 73" d="M12.707,111.982l.018.018a.433.433,0,0,1,0,.61l-4.577,4.577a.433.433,0,0,1-.61,0l-.018-.018a.432.432,0,0,1,0-.61l4.577-4.578a.433.433,0,0,1,.61,0" transform="translate(-5.515 -83.424)" fill="#4a7723"/>
    <path id="Path_74" data-name="Path 74" d="M148.1,94.985l-.018.018a.433.433,0,0,1-.61,0l-4.578-4.577a.433.433,0,0,1,0-.61l.018-.018a.433.433,0,0,1,.61,0l4.577,4.578a.432.432,0,0,1,0,.61" transform="translate(-106.477 -66.879)" fill="#4a7723"/>
    <path id="Path_75" data-name="Path 75" d="M149.106,55.287l.018.018a.433.433,0,0,1,0,.61l-4.577,4.577a.433.433,0,0,1-.61,0l-.018-.018a.433.433,0,0,1,0-.61l4.578-4.577a.432.432,0,0,1,.61,0" transform="translate(-107.243 -41.14)" fill="#4a7723"/>
    <path id="Path_76" data-name="Path 76" d="M151.541,81.55v.025a.433.433,0,0,1-.431.431h-6.474a.432.432,0,0,1-.431-.431V81.55a.433.433,0,0,1,.431-.431h6.474a.433.433,0,0,1,.431.431" transform="translate(-107.551 -60.5)" fill="#4a7723"/>
  </g>
</svg>
