<svg id="speaker" xmlns="http://www.w3.org/2000/svg" width="31.963" height="29.834" viewBox="0 0 31.963 29.834">
  <path id="Path_23" data-name="Path 23" d="M18.575,16.1a1.062,1.062,0,0,0-1.127.128L7.083,24.515H2.131A2.134,2.134,0,0,0,0,26.646V35.17A2.133,2.133,0,0,0,2.131,37.3H7.083l10.363,8.291a1.067,1.067,0,0,0,1.129.126,1.063,1.063,0,0,0,.6-.959v-27.7A1.069,1.069,0,0,0,18.575,16.1Z" transform="translate(0 -15.99)" fill="#03a8f9"/>
  <path id="Path_24" data-name="Path 24" d="M343.566,122.559a1.066,1.066,0,0,0-1.5,1.517,8.5,8.5,0,0,1,0,12.035,1.065,1.065,0,1,0,1.5,1.513,10.628,10.628,0,0,0,0-15.065Z" transform="translate(-318.994 -115.177)" fill="#03a8f9"/>
  <path id="Path_25" data-name="Path 25" d="M388.684,77.434a1.066,1.066,0,1,0-1.5,1.513,12.715,12.715,0,0,1,0,18.047,1.066,1.066,0,0,0,1.5,1.513,14.85,14.85,0,0,0,0-21.072Z" transform="translate(-361.106 -73.054)" fill="#03a8f9"/>
</svg>
